<?xml version="1.0" encoding="UTF-8" standalone="no"?>
<!DOCTYPE svg PUBLIC "-//W3C//DTD SVG 1.1//EN" "http://www.w3.org/Graphics/SVG/1.1/DTD/svg11.dtd">
<svg width="100%" height="100%" viewBox="0 0 2080 2080" version="1.1" xmlns="http://www.w3.org/2000/svg" xmlns:xlink="http://www.w3.org/1999/xlink" xml:space="preserve" xmlns:serif="http://www.serif.com/" style="fill-rule:evenodd;clip-rule:evenodd;">
    <rect id="Plan-de-travail1" serif:id="Plan de travail1" x="0" y="0" width="2080" height="2080" style="fill:none;"/>
    <clipPath id="_clip1">
        <rect id="Plan-de-travail11" serif:id="Plan de travail1" x="0" y="0" width="2080" height="2080"/>
    </clipPath>
    <g clip-path="url(#_clip1)">
        <g id="bat-eau" transform="matrix(53.1384,0,0,53.1384,-5869.5,-1415.14)">
            <g transform="matrix(0.895396,-0.44527,0.44527,0.895396,-9.65692,64.6887)">
                <path d="M139.42,32.948L139.537,48.598C139.54,49.014 139.118,49.248 138.803,49.004L125.469,38.68C125.154,38.436 125.204,37.914 125.555,37.773L138.774,32.447C139.082,32.323 139.418,32.583 139.42,32.948Z" style="fill:rgb(217,187,146);fill-rule:nonzero;stroke:black;stroke-width:0.01px;"/>
            </g>
            <g transform="matrix(0.895396,-0.44527,0.44527,0.895396,-9.65692,64.6887)">
                <path d="M122.902,33.556L144.1,50.134C144.42,50.384 144.357,50.919 143.992,51.046L136.927,53.518C136.786,53.568 136.63,53.54 136.506,53.443L122.679,42.63C122.556,42.533 122.479,42.379 122.473,42.215L122.167,33.978C122.151,33.553 122.582,33.306 122.902,33.556Z" style="fill:rgb(217,187,146);fill-rule:nonzero;stroke:black;stroke-width:0.01px;"/>
            </g>
            <g transform="matrix(0.0188188,0,0,0.0188188,110.457,26.6312)">
                <path d="M0,1229.93C0,1229.93 349.912,1046.1 785.554,1126.68C1221.19,1207.26 1206.09,1401.16 1598.92,1265.18C1991.75,1129.2 2075.08,980.629 2304.12,1010.85C2523.76,1039.83 2304.12,2080 2304.12,2080L-274.591,2080L-274.591,1197.19L0,1229.93Z" style="fill:url(#_Linear2);stroke:black;stroke-width:1px;stroke-linecap:round;stroke-linejoin:round;stroke-miterlimit:1.5;"/>
            </g>
        </g>
    </g>
    <defs>
        <linearGradient id="_Linear2" x1="0" y1="0" x2="1" y2="0" gradientUnits="userSpaceOnUse" gradientTransform="matrix(-2.74962e-13,-1709.83,685.579,-1.10249e-13,1007.15,2059.67)"><stop offset="0" style="stop-color:rgb(0,185,250);stop-opacity:1"/><stop offset="1" style="stop-color:rgb(132,231,239);stop-opacity:1"/></linearGradient>
    </defs>
</svg>
